<svg width="36" height="36" viewBox="0 0 36 36" fill="none" xmlns="http://www.w3.org/2000/svg">
<g clip-path="url(#clip0_2801_698)">
<g filter="url(#filter0_i_2801_698)">
<mask id="mask0_2801_698" style="mask-type:alpha" maskUnits="userSpaceOnUse" x="1" y="18" width="34" height="33">
<path d="M34.1511 34.3429C34.1511 43.2725 26.9121 50.5116 17.9824 50.5116C9.05277 50.5116 1.81384 43.2725 1.81384 34.3429C1.81384 25.4133 9.05277 18.1743 17.9824 18.1743C26.9121 18.1743 34.1511 25.4133 34.1511 34.3429Z" fill="white"/>
</mask>
<g mask="url(#mask0_2801_698)">
<path d="M34.1511 34.3429C34.1511 43.2725 26.9121 50.5116 17.9824 50.5116C9.05277 50.5116 1.81384 43.2725 1.81384 34.3429C1.81384 25.4133 9.05277 18.1743 17.9824 18.1743C26.9121 18.1743 34.1511 25.4133 34.1511 34.3429Z" fill="white"/>
<path d="M34.0463 34.3431C34.0463 43.2151 26.8542 50.4071 17.9824 50.4071V50.6164C26.9698 50.6164 34.2556 43.3306 34.2556 34.3431H34.0463ZM17.9824 50.4071C9.11049 50.4071 1.91841 43.2151 1.91841 34.3431H1.70911C1.70911 43.3306 8.99489 50.6164 17.9824 50.6164V50.4071ZM1.91841 34.3431C1.91841 25.4712 9.11049 18.2791 17.9824 18.2791V18.0698C8.99489 18.0698 1.70911 25.3556 1.70911 34.3431H1.91841ZM17.9824 18.2791C26.8542 18.2791 34.0463 25.4712 34.0463 34.3431H34.2556C34.2556 25.3556 26.9698 18.0698 17.9824 18.0698V18.2791Z" fill="#88B58D"/>
</g>
<mask id="mask1_2801_698" style="mask-type:alpha" maskUnits="userSpaceOnUse" x="10" y="2" width="16" height="15">
<path fill-rule="evenodd" clip-rule="evenodd" d="M25.6045 9.64532C25.6045 13.6622 22.192 16.9186 17.9824 16.9186C13.7729 16.9186 10.3604 13.6622 10.3604 9.64532C10.3604 5.62843 13.7729 2.37207 17.9824 2.37207C22.192 2.37207 25.6045 5.62843 25.6045 9.64532ZM15.1743 8.00579C15.1743 8.32368 14.8775 8.58137 14.5115 8.58137C14.1455 8.58137 13.8487 8.32368 13.8487 8.00579C13.8487 7.68789 14.1455 7.43021 14.5115 7.43021C14.8775 7.43021 15.1743 7.68789 15.1743 8.00579ZM21.4534 8.58137C21.8194 8.58137 22.1161 8.32368 22.1161 8.00579C22.1161 7.68789 21.8194 7.43021 21.4534 7.43021C21.0873 7.43021 20.7906 7.68789 20.7906 8.00579C20.7906 8.32368 21.0873 8.58137 21.4534 8.58137Z" fill="white"/>
</mask>
<g mask="url(#mask1_2801_698)">
<path fill-rule="evenodd" clip-rule="evenodd" d="M25.6045 9.64532C25.6045 13.6622 22.192 16.9186 17.9824 16.9186C13.7729 16.9186 10.3604 13.6622 10.3604 9.64532C10.3604 5.62843 13.7729 2.37207 17.9824 2.37207C22.192 2.37207 25.6045 5.62843 25.6045 9.64532ZM15.1743 8.00579C15.1743 8.32368 14.8775 8.58137 14.5115 8.58137C14.1455 8.58137 13.8487 8.32368 13.8487 8.00579C13.8487 7.68789 14.1455 7.43021 14.5115 7.43021C14.8775 7.43021 15.1743 7.68789 15.1743 8.00579ZM21.4534 8.58137C21.8194 8.58137 22.1161 8.32368 22.1161 8.00579C22.1161 7.68789 21.8194 7.43021 21.4534 7.43021C21.0873 7.43021 20.7906 7.68789 20.7906 8.00579C20.7906 8.32368 21.0873 8.58137 21.4534 8.58137Z" fill="white"/>
<path d="M17.9824 17.0231C22.2451 17.0231 25.7091 13.7245 25.7091 9.64524H25.4998C25.4998 13.5998 22.1388 16.8138 17.9824 16.8138V17.0231ZM10.2556 9.64524C10.2556 13.7245 13.7197 17.0231 17.9824 17.0231V16.8138C13.8259 16.8138 10.4649 13.5998 10.4649 9.64524H10.2556ZM17.9824 2.26733C13.7197 2.26733 10.2556 5.56597 10.2556 9.64524H10.4649C10.4649 5.69068 13.8259 2.47664 17.9824 2.47664V2.26733ZM25.7091 9.64524C25.7091 5.56597 22.2451 2.26733 17.9824 2.26733V2.47664C22.1388 2.47664 25.4998 5.69068 25.4998 9.64524H25.7091ZM14.5114 8.68594C14.9209 8.68594 15.2789 8.39476 15.2789 8.00571H15.0696C15.0696 8.2524 14.834 8.47664 14.5114 8.47664V8.68594ZM13.744 8.00571C13.744 8.39476 14.1019 8.68594 14.5114 8.68594V8.47664C14.1888 8.47664 13.9533 8.2524 13.9533 8.00571H13.744ZM14.5114 7.32547C14.1019 7.32547 13.744 7.61665 13.744 8.00571H13.9533C13.9533 7.75901 14.1888 7.53478 14.5114 7.53478V7.32547ZM15.2789 8.00571C15.2789 7.61665 14.9209 7.32547 14.5114 7.32547V7.53478C14.834 7.53478 15.0696 7.75901 15.0696 8.00571H15.2789ZM22.0115 8.00571C22.0115 8.2524 21.7759 8.47664 21.4533 8.47664V8.68594C21.8628 8.68594 22.2208 8.39476 22.2208 8.00571H22.0115ZM21.4533 7.53478C21.7759 7.53478 22.0115 7.75901 22.0115 8.00571H22.2208C22.2208 7.61665 21.8628 7.32547 21.4533 7.32547V7.53478ZM20.8952 8.00571C20.8952 7.75901 21.1307 7.53478 21.4533 7.53478V7.32547C21.0438 7.32547 20.6859 7.61665 20.6859 8.00571H20.8952ZM21.4533 8.47664C21.1307 8.47664 20.8952 8.2524 20.8952 8.00571H20.6859C20.6859 8.39476 21.0438 8.68594 21.4533 8.68594V8.47664Z" fill="#88B58D"/>
</g>
</g>
</g>
<defs>
<filter id="filter0_i_2801_698" x="1.81384" y="2.37207" width="32.3372" height="52.1394" filterUnits="userSpaceOnUse" color-interpolation-filters="sRGB">
<feFlood flood-opacity="0" result="BackgroundImageFix"/>
<feBlend mode="normal" in="SourceGraphic" in2="BackgroundImageFix" result="shape"/>
<feColorMatrix in="SourceAlpha" type="matrix" values="0 0 0 0 0 0 0 0 0 0 0 0 0 0 0 0 0 0 127 0" result="hardAlpha"/>
<feOffset dy="4"/>
<feGaussianBlur stdDeviation="2"/>
<feComposite in2="hardAlpha" operator="arithmetic" k2="-1" k3="1"/>
<feColorMatrix type="matrix" values="0 0 0 0 0 0 0 0 0 0 0 0 0 0 0 0 0 0 0.25 0"/>
<feBlend mode="normal" in2="shape" result="effect1_innerShadow_2801_698"/>
</filter>
<clipPath id="clip0_2801_698">
<rect width="36" height="36" fill="white"/>
</clipPath>
</defs>
</svg>
